# Blender 4.2.3 LTS
# www.blender.org
mtllib FlowerTop.mtl
o Plane.001
v 0.157150 0.678135 -0.126568
v -0.063658 0.721145 -0.011934
v 0.113804 0.689421 -0.212886
v -0.095160 0.693409 -0.097184
v 0.165152 0.676865 -0.077742
v -0.028894 0.709101 0.058400
v 0.043470 0.672191 -0.076324
v 0.021772 0.689559 -0.183024
v 0.087460 0.695607 0.003488
v 0.295016 0.682111 -0.233092
v -0.204662 0.753981 0.093372
v 0.207426 0.628273 -0.444634
v -0.272796 0.791317 -0.066440
v 0.397520 0.759757 -0.092760
v -0.027396 0.782205 0.341268
v -0.029180 0.698131 -0.305550
v 0.146272 0.739533 0.108436
v 0.155732 0.692989 -0.128092
v -0.060146 0.735581 -0.014004
v 0.114832 0.704353 -0.213852
v -0.090628 0.707709 -0.097188
v 0.162152 0.691125 -0.081296
v -0.027320 0.723671 0.055202
v 0.044822 0.687085 -0.077484
v 0.024542 0.704295 -0.182616
v 0.086342 0.710101 -0.000214
v 0.293210 0.696753 -0.235802
v -0.200612 0.768253 0.091150
v 0.208596 0.643077 -0.446746
v -0.267502 0.805347 -0.066804
v 0.393170 0.773567 -0.096680
v -0.026502 0.796761 0.337756
v -0.025556 0.712685 -0.305820
v 0.143676 0.753603 0.103932
vn -0.1651 -0.9813 0.0988
vn 0.0397 -0.9873 0.1539
vn -0.1809 -0.9690 0.1683
vn -0.0259 -0.9901 -0.1383
vn 0.0877 -0.9574 0.2753
vn -0.2079 -0.9601 0.1873
vn -0.3402 -0.9348 0.1017
vn -0.1430 -0.9814 0.1284
vn -0.3719 -0.9179 -0.1386
vn 0.2879 -0.9345 0.2091
vn 0.2888 -0.8981 0.3316
vn -0.0230 -0.9882 0.1513
vn 0.1639 0.9814 -0.0998
vn -0.0390 0.9874 -0.1533
vn 0.1842 0.9686 -0.1669
vn 0.0274 0.9899 0.1394
vn -0.0891 0.9572 -0.2752
vn 0.2082 0.9601 -0.1869
vn 0.3404 0.9348 -0.1017
vn 0.1423 0.9815 -0.1283
vn 0.3723 0.9178 0.1380
vn -0.2890 0.9338 -0.2111
vn -0.2900 0.8977 -0.3317
vn 0.0235 0.9883 -0.1509
vn -0.5083 0.0131 -0.8611
vn 0.9288 -0.0403 -0.3683
vn -0.8435 0.3180 0.4329
vn 0.5648 0.3644 0.7404
vn -0.8033 0.2457 0.5426
vn 0.8004 0.0337 -0.5985
vn -0.6519 0.1871 -0.7348
vn 0.8057 0.2037 0.5562
vt 0.000000 0.000000
s 0
usemtl Material.002
f 7/1/1 2/1/1 4/1/1 8/1/1
f 7/1/2 1/1/2 5/1/2 9/1/2
f 2/1/3 7/1/3 9/1/3 6/1/3
f 1/1/4 7/1/4 8/1/4 3/1/4
f 6/1/5 9/1/5 17/1/5 15/1/5
f 2/1/6 6/1/6 15/1/6 11/1/6
f 4/1/7 2/1/7 11/1/7 13/1/7
f 3/1/8 8/1/8 16/1/8 12/1/8
f 8/1/9 4/1/9 13/1/9 16/1/9
f 5/1/10 1/1/10 10/1/10 14/1/10
f 9/1/11 5/1/11 14/1/11 17/1/11
f 1/1/12 3/1/12 12/1/12 10/1/12
f 24/1/13 25/1/13 21/1/13 19/1/13
f 24/1/14 26/1/14 22/1/14 18/1/14
f 19/1/15 23/1/15 26/1/15 24/1/15
f 18/1/16 20/1/16 25/1/16 24/1/16
f 23/1/17 32/1/17 34/1/17 26/1/17
f 19/1/18 28/1/18 32/1/18 23/1/18
f 21/1/19 30/1/19 28/1/19 19/1/19
f 20/1/20 29/1/20 33/1/20 25/1/20
f 25/1/21 33/1/21 30/1/21 21/1/21
f 22/1/22 31/1/22 27/1/22 18/1/22
f 26/1/23 34/1/23 31/1/23 22/1/23
f 18/1/24 27/1/24 29/1/24 20/1/24
f 12/1/25 16/1/25 33/1/25 29/1/25
f 10/1/26 12/1/26 29/1/26 27/1/26
f 13/1/27 11/1/27 28/1/27 30/1/27
f 17/1/28 14/1/28 31/1/28 34/1/28
f 11/1/29 15/1/29 32/1/29 28/1/29
f 14/1/30 10/1/30 27/1/30 31/1/30
f 16/1/31 13/1/31 30/1/31 33/1/31
f 15/1/32 17/1/32 34/1/32 32/1/32
o Plane.002
v 0.167592 0.721227 -0.157980
v -0.111614 0.764843 -0.009886
v 0.117028 0.729907 -0.251312
v -0.099538 0.744005 -0.130072
v 0.172382 0.712213 -0.070190
v -0.018708 0.754961 0.105596
v 0.043462 0.672157 -0.076928
v 0.000132 0.735085 -0.209822
v 0.110596 0.729269 0.022564
v 0.325496 0.752161 -0.288974
v -0.171332 0.808137 0.044972
v 0.204400 0.781547 -0.414414
v -0.218158 0.875785 -0.098298
v 0.298628 0.815565 -0.129720
v -0.080214 0.868673 0.253880
v -0.074838 0.819453 -0.309666
v 0.184812 0.819565 0.078492
v 0.163492 0.735649 -0.157548
v -0.103924 0.777547 -0.012002
v 0.118128 0.743973 -0.246218
v -0.090904 0.755903 -0.127084
v 0.165084 0.724689 -0.074200
v -0.017570 0.767719 0.097790
v 0.044822 0.687085 -0.077484
v 0.005064 0.748299 -0.204718
v 0.106322 0.741983 0.015852
v 0.321804 0.766669 -0.288048
v -0.162794 0.820067 0.041844
v 0.205404 0.795722 -0.409618
v -0.207844 0.886351 -0.095664
v 0.289988 0.826989 -0.134172
v -0.078808 0.881051 0.245526
v -0.067850 0.831139 -0.303370
v 0.177542 0.829751 0.070222
vn -0.4172 -0.9034 -0.0987
vn 0.2877 -0.9484 0.1331
vn -0.1976 -0.9163 0.3484
vn 0.0166 -0.9512 -0.3080
vn 0.3052 -0.6831 0.6635
vn -0.4342 -0.8194 0.3742
vn -0.7080 -0.7054 -0.0319
vn -0.2601 -0.8526 -0.4533
vn -0.6297 -0.6815 -0.3729
vn 0.5363 -0.8129 0.2269
vn 0.6356 -0.6502 0.4163
vn 0.0642 -0.9734 -0.2198
vn 0.4204 0.9017 0.1009
vn -0.2926 0.9472 -0.1311
vn 0.2011 0.9151 -0.3494
vn -0.0173 0.9497 0.3127
vn -0.3103 0.6815 -0.6628
vn 0.4382 0.8184 -0.3717
vn 0.7093 0.7040 0.0345
vn 0.2607 0.8529 0.4523
vn 0.6317 0.6798 0.3727
vn -0.5396 0.8079 -0.2369
vn -0.6391 0.6472 -0.4157
vn -0.0630 0.9731 0.2215
vn -0.2664 0.4483 -0.8533
vn 0.7295 0.1989 -0.6544
vn -0.6638 0.5670 0.4877
vn 0.6479 0.6796 0.3441
vn -0.8583 0.4593 0.2290
vn 0.9031 0.4294 -0.0004
vn -0.5458 0.6410 -0.5396
vn 0.5261 0.5888 0.6136
vt 0.000000 0.000000
s 0
usemtl Material.003
f 41/2/33 36/2/33 38/2/33 42/2/33
f 41/2/34 35/2/34 39/2/34 43/2/34
f 36/2/35 41/2/35 43/2/35 40/2/35
f 35/2/36 41/2/36 42/2/36 37/2/36
f 40/2/37 43/2/37 51/2/37 49/2/37
f 36/2/38 40/2/38 49/2/38 45/2/38
f 38/2/39 36/2/39 45/2/39 47/2/39
f 37/2/40 42/2/40 50/2/40 46/2/40
f 42/2/41 38/2/41 47/2/41 50/2/41
f 39/2/42 35/2/42 44/2/42 48/2/42
f 43/2/43 39/2/43 48/2/43 51/2/43
f 35/2/44 37/2/44 46/2/44 44/2/44
f 58/2/45 59/2/45 55/2/45 53/2/45
f 58/2/46 60/2/46 56/2/46 52/2/46
f 53/2/47 57/2/47 60/2/47 58/2/47
f 52/2/48 54/2/48 59/2/48 58/2/48
f 57/2/49 66/2/49 68/2/49 60/2/49
f 53/2/50 62/2/50 66/2/50 57/2/50
f 55/2/51 64/2/51 62/2/51 53/2/51
f 54/2/52 63/2/52 67/2/52 59/2/52
f 59/2/53 67/2/53 64/2/53 55/2/53
f 56/2/54 65/2/54 61/2/54 52/2/54
f 60/2/55 68/2/55 65/2/55 56/2/55
f 52/2/56 61/2/56 63/2/56 54/2/56
f 46/2/57 50/2/57 67/2/57 63/2/57
f 44/2/58 46/2/58 63/2/58 61/2/58
f 47/2/59 45/2/59 62/2/59 64/2/59
f 51/2/60 48/2/60 65/2/60 68/2/60
f 45/2/61 49/2/61 66/2/61 62/2/61
f 48/2/62 44/2/62 61/2/62 65/2/62
f 50/2/63 47/2/63 64/2/63 67/2/63
f 49/2/64 51/2/64 68/2/64 66/2/64
o Plane.003
v 0.125578 0.807303 -0.134478
v -0.056808 0.834539 -0.036152
v 0.089790 0.813547 -0.196330
v -0.049970 0.822273 -0.117762
v 0.129814 0.803551 -0.074942
v 0.003436 0.830217 0.039010
v 0.044366 0.672103 -0.076884
v 0.014214 0.817793 -0.170792
v 0.088060 0.813887 -0.013726
v 0.225698 0.839791 -0.201816
v -0.103642 0.877239 0.028406
v 0.152366 0.858581 -0.270600
v -0.144702 0.879507 -0.127212
v 0.234292 0.886023 -0.099240
v -0.023222 0.909993 0.086150
v -0.047064 0.943057 -0.265622
v 0.151182 0.898589 0.063164
v 0.118434 0.820193 -0.131688
v -0.048806 0.846397 -0.040664
v 0.090064 0.825399 -0.187142
v -0.040664 0.832861 -0.112636
v 0.119430 0.813339 -0.079562
v 0.005200 0.840249 0.028000
v 0.044822 0.687085 -0.077484
v 0.019354 0.828105 -0.161188
v 0.082680 0.824155 -0.023244
v 0.220260 0.853703 -0.200440
v -0.096818 0.889129 0.022318
v 0.152994 0.871497 -0.263000
v -0.136978 0.891743 -0.123256
v 0.225806 0.897687 -0.103356
v -0.021342 0.920647 0.075758
v -0.041570 0.953357 -0.256202
v 0.145346 0.908979 0.054054
vn -0.7568 -0.5649 -0.3289
vn 0.8034 -0.5264 0.2783
vn -0.2055 -0.6126 0.7632
vn 0.1733 -0.6673 -0.7243
vn 0.1593 -0.6167 0.7709
vn -0.3792 -0.7374 0.5590
vn -0.5431 -0.8319 0.1134
vn -0.2924 -0.6727 -0.6797
vn -0.4283 -0.6957 -0.5767
vn 0.5402 -0.8235 0.1730
vn 0.5823 -0.7090 0.3978
vn 0.1673 -0.9330 -0.3185
vn 0.7675 0.5352 0.3528
vn -0.8260 0.4833 -0.2900
vn 0.2034 0.5905 -0.7810
vn -0.1701 0.6458 0.7444
vn -0.1598 0.6177 -0.7700
vn 0.3833 0.7351 -0.5592
vn 0.5416 0.8318 -0.1215
vn 0.2980 0.6723 0.6777
vn 0.4238 0.6951 0.5807
vn -0.5440 0.8195 -0.1801
vn -0.5848 0.7090 -0.3941
vn -0.1700 0.9322 0.3195
vn 0.2049 0.5430 -0.8144
vn 0.6879 0.3382 -0.6422
vn -0.8241 0.5173 0.2306
vn 0.7012 0.6417 0.3107
vn -0.6119 0.6070 0.5071
vn 0.8595 0.4401 -0.2597
vn -0.7566 0.5992 -0.2619
vn 0.1399 0.6871 0.7130
vt 0.000000 0.000000
s 0
usemtl Material.004
f 75/3/65 70/3/65 72/3/65 76/3/65
f 75/3/66 69/3/66 73/3/66 77/3/66
f 70/3/67 75/3/67 77/3/67 74/3/67
f 69/3/68 75/3/68 76/3/68 71/3/68
f 74/3/69 77/3/69 85/3/69 83/3/69
f 70/3/70 74/3/70 83/3/70 79/3/70
f 72/3/71 70/3/71 79/3/71 81/3/71
f 71/3/72 76/3/72 84/3/72 80/3/72
f 76/3/73 72/3/73 81/3/73 84/3/73
f 73/3/74 69/3/74 78/3/74 82/3/74
f 77/3/75 73/3/75 82/3/75 85/3/75
f 69/3/76 71/3/76 80/3/76 78/3/76
f 92/3/77 93/3/77 89/3/77 87/3/77
f 92/3/78 94/3/78 90/3/78 86/3/78
f 87/3/79 91/3/79 94/3/79 92/3/79
f 86/3/80 88/3/80 93/3/80 92/3/80
f 91/3/81 100/3/81 102/3/81 94/3/81
f 87/3/82 96/3/82 100/3/82 91/3/82
f 89/3/83 98/3/83 96/3/83 87/3/83
f 88/3/84 97/3/84 101/3/84 93/3/84
f 93/3/85 101/3/85 98/3/85 89/3/85
f 90/3/86 99/3/86 95/3/86 86/3/86
f 94/3/87 102/3/87 99/3/87 90/3/87
f 86/3/88 95/3/88 97/3/88 88/3/88
f 80/3/89 84/3/89 101/3/89 97/3/89
f 78/3/90 80/3/90 97/3/90 95/3/90
f 81/3/91 79/3/91 96/3/91 98/3/91
f 85/3/92 82/3/92 99/3/92 102/3/92
f 79/3/93 83/3/93 100/3/93 96/3/93
f 82/3/94 78/3/94 95/3/94 99/3/94
f 84/3/95 81/3/95 98/3/95 101/3/95
f 83/3/96 85/3/96 102/3/96 100/3/96
