# Blender 4.4.3
# www.blender.org
mtllib kwiat.mtl
o Plane
v 0.000000 0.000000 0.000000
v 0.060013 0.426447 -0.063632
v 0.040926 0.054432 0.001771
v 0.010438 0.132598 -0.016374
v 0.030242 0.215724 -0.017106
v 0.005584 0.289401 -0.015719
v 0.046499 0.358517 -0.024516
v -0.015191 0.437542 -0.013852
v -0.063207 0.198589 0.001914
v -0.191443 0.300981 0.009495
v -0.355030 0.224587 -0.008695
v 0.019132 0.065868 -0.025283
v 0.046611 0.155280 -0.028528
v -0.001935 0.283241 -0.038904
v -0.182436 0.298496 -0.029765
v -0.252631 0.222859 -0.041019
v 0.042675 0.268870 -0.037570
v 0.024676 0.349545 -0.049195
vn -0.3336 0.0878 0.9386
vn -0.2237 0.1368 0.9650
vn 0.0482 -0.0027 0.9988
vn 0.1557 0.0335 0.9872
vn 0.1876 0.0139 0.9821
vn 0.5544 0.3297 0.7641
vn 0.2440 0.0035 0.9698
vn 0.1317 0.0919 0.9870
vn -0.0479 -0.1332 0.9899
vn 0.6041 -0.4324 -0.6694
vn -0.7757 -0.0168 -0.6309
vn 0.7037 -0.2405 -0.6686
vn -0.3606 0.0771 -0.9295
vn 0.8254 0.1193 0.5518
vn 0.0670 0.9587 -0.2765
vn 0.7487 0.0783 0.6583
vn -0.3761 -0.1672 -0.9114
vn 0.0521 0.9973 -0.0512
vn -0.0792 -0.3859 -0.9191
vn -0.2200 0.6453 -0.7315
vn -0.7022 0.6821 -0.2043
vn -0.0797 -0.9765 -0.2003
vn 0.2142 -0.0537 -0.9753
vn -0.2686 -0.0857 -0.9594
vn -0.0186 -0.1494 -0.9886
vn 0.9370 -0.0891 0.3377
vn -0.9010 0.3908 0.1884
vn -0.7754 -0.1009 -0.6234
vn 0.7467 -0.4372 -0.5013
vn -0.5403 0.0912 -0.8365
vn -0.0176 -0.1465 -0.9891
vn 0.7353 0.0668 -0.6745
vt 0.000000 0.000000
s 0
usemtl Material
f 4/1/1 3/1/1 5/1/1
f 3/1/2 4/1/2 1/1/2
f 4/1/3 5/1/3 6/1/3
f 6/1/4 5/1/4 7/1/4
f 6/1/5 7/1/5 8/1/5
f 8/1/6 7/1/6 2/1/6
f 4/1/7 6/1/7 9/1/7
f 9/1/8 6/1/8 10/1/8
f 9/1/9 10/1/9 11/1/9
f 3/1/10 1/1/10 12/1/10
f 4/1/11 12/1/11 1/1/11
f 12/1/12 13/1/12 3/1/12
f 12/1/13 4/1/13 13/1/13
f 5/1/14 3/1/14 13/1/14
f 15/1/15 6/1/15 14/1/15
f 13/1/16 17/1/16 5/1/16
f 9/1/17 14/1/17 4/1/17
f 10/1/18 6/1/18 15/1/18
f 14/1/19 9/1/19 15/1/19
f 11/1/20 10/1/20 16/1/20
f 15/1/21 16/1/21 10/1/21
f 9/1/22 11/1/22 16/1/22
f 15/1/23 9/1/23 16/1/23
f 13/1/24 4/1/24 17/1/24
f 14/1/25 17/1/25 4/1/25
f 7/1/26 5/1/26 17/1/26
f 14/1/27 6/1/27 18/1/27
f 6/1/28 8/1/28 18/1/28
f 2/1/29 7/1/29 18/1/29
f 8/1/30 2/1/30 18/1/30
f 17/1/31 14/1/31 18/1/31
f 17/1/32 18/1/32 7/1/32
o Plane.001
v 0.078575 0.427519 -0.063284
v -0.031829 0.449024 -0.005967
v 0.056902 0.433162 -0.106443
v -0.047580 0.435156 -0.048592
v 0.082576 0.426884 -0.038871
v -0.014447 0.443002 0.029200
v 0.021735 0.424547 -0.038162
v 0.010886 0.433231 -0.091512
v 0.043730 0.436255 0.001744
v 0.147508 0.429507 -0.116546
v -0.102331 0.465442 0.046686
v 0.103713 0.402588 -0.222317
v -0.136398 0.484110 -0.033220
v 0.198760 0.468330 -0.046380
v -0.013698 0.479554 0.170634
v -0.014590 0.437517 -0.152775
v 0.073136 0.458218 0.054218
v 0.077866 0.434946 -0.064046
v -0.030073 0.456242 -0.007002
v 0.057416 0.440628 -0.106926
v -0.045314 0.442306 -0.048594
v 0.081076 0.434014 -0.040648
v -0.013660 0.450287 0.027601
v 0.022411 0.431994 -0.038742
v 0.012271 0.440599 -0.091308
v 0.043171 0.443502 -0.000107
v 0.146605 0.436828 -0.117901
v -0.100306 0.472578 0.045575
v 0.104298 0.409990 -0.223373
v -0.133751 0.491125 -0.033402
v 0.196585 0.475235 -0.048340
v -0.013251 0.486832 0.168878
v -0.012778 0.444794 -0.152910
v 0.071838 0.465253 0.051966
vn -0.1651 -0.9813 0.0988
vn 0.0397 -0.9873 0.1539
vn -0.1809 -0.9690 0.1683
vn -0.0259 -0.9901 -0.1382
vn 0.0877 -0.9574 0.2753
vn -0.2079 -0.9601 0.1873
vn -0.3402 -0.9348 0.1017
vn -0.1430 -0.9814 0.1284
vn -0.3719 -0.9179 -0.1386
vn 0.2879 -0.9345 0.2091
vn 0.2888 -0.8981 0.3316
vn -0.0230 -0.9882 0.1513
vn 0.1639 0.9814 -0.0998
vn -0.0390 0.9874 -0.1533
vn 0.1842 0.9686 -0.1669
vn 0.0274 0.9899 0.1394
vn -0.0891 0.9572 -0.2752
vn 0.2082 0.9601 -0.1869
vn 0.3404 0.9348 -0.1017
vn 0.1423 0.9815 -0.1283
vn 0.3723 0.9178 0.1380
vn -0.2890 0.9338 -0.2111
vn -0.2900 0.8977 -0.3317
vn 0.0235 0.9883 -0.1509
vn -0.5083 0.0131 -0.8611
vn 0.9288 -0.0403 -0.3683
vn -0.8435 0.3180 0.4329
vn 0.5648 0.3644 0.7404
vn -0.8033 0.2457 0.5426
vn 0.8004 0.0337 -0.5985
vn -0.6519 0.1871 -0.7348
vn 0.8057 0.2036 0.5562
vt 0.000000 0.000000
s 0
usemtl Material.001
f 25/2/33 20/2/33 22/2/33 26/2/33
f 25/2/34 19/2/34 23/2/34 27/2/34
f 20/2/35 25/2/35 27/2/35 24/2/35
f 19/2/36 25/2/36 26/2/36 21/2/36
f 24/2/37 27/2/37 35/2/37 33/2/37
f 20/2/38 24/2/38 33/2/38 29/2/38
f 22/2/39 20/2/39 29/2/39 31/2/39
f 21/2/40 26/2/40 34/2/40 30/2/40
f 26/2/41 22/2/41 31/2/41 34/2/41
f 23/2/42 19/2/42 28/2/42 32/2/42
f 27/2/43 23/2/43 32/2/43 35/2/43
f 19/2/44 21/2/44 30/2/44 28/2/44
f 42/2/45 43/2/45 39/2/45 37/2/45
f 42/2/46 44/2/46 40/2/46 36/2/46
f 37/2/47 41/2/47 44/2/47 42/2/47
f 36/2/48 38/2/48 43/2/48 42/2/48
f 41/2/49 50/2/49 52/2/49 44/2/49
f 37/2/50 46/2/50 50/2/50 41/2/50
f 39/2/51 48/2/51 46/2/51 37/2/51
f 38/2/52 47/2/52 51/2/52 43/2/52
f 43/2/53 51/2/53 48/2/53 39/2/53
f 40/2/54 49/2/54 45/2/54 36/2/54
f 44/2/55 52/2/55 49/2/55 40/2/55
f 36/2/56 45/2/56 47/2/56 38/2/56
f 30/2/57 34/2/57 51/2/57 47/2/57
f 28/2/58 30/2/58 47/2/58 45/2/58
f 31/2/59 29/2/59 46/2/59 48/2/59
f 35/2/60 32/2/60 49/2/60 52/2/60
f 29/2/61 33/2/61 50/2/61 46/2/61
f 32/2/62 28/2/62 45/2/62 49/2/62
f 34/2/63 31/2/63 48/2/63 51/2/63
f 33/2/64 35/2/64 52/2/64 50/2/64
o Plane.002
v 0.083796 0.449065 -0.078990
v -0.055807 0.470873 -0.004943
v 0.058514 0.453405 -0.125656
v -0.049769 0.460454 -0.065036
v 0.086191 0.444558 -0.035095
v -0.009354 0.465932 0.052798
v 0.021731 0.424530 -0.038464
v 0.000066 0.455994 -0.104911
v 0.055298 0.453086 0.011282
v 0.162748 0.464532 -0.144487
v -0.085666 0.492520 0.022486
v 0.102200 0.479225 -0.207207
v -0.109079 0.526344 -0.049149
v 0.149314 0.496234 -0.064860
v -0.040107 0.522788 0.126940
v -0.037419 0.498178 -0.154833
v 0.092406 0.498234 0.039246
v 0.081746 0.456276 -0.078774
v -0.051962 0.477225 -0.006001
v 0.059064 0.460438 -0.123109
v -0.045452 0.466403 -0.063542
v 0.082542 0.450796 -0.037100
v -0.008785 0.472311 0.048895
v 0.022411 0.431994 -0.038742
v 0.002532 0.462601 -0.102359
v 0.053161 0.459443 0.007926
v 0.160902 0.471786 -0.144024
v -0.081397 0.498485 0.020922
v 0.102702 0.486313 -0.204809
v -0.103922 0.531627 -0.047832
v 0.144994 0.501946 -0.067086
v -0.039404 0.528977 0.122763
v -0.033925 0.504021 -0.151685
v 0.088771 0.503327 0.035111
vn -0.4172 -0.9034 -0.0987
vn 0.2877 -0.9484 0.1331
vn -0.1976 -0.9163 0.3484
vn 0.0166 -0.9512 -0.3080
vn 0.3052 -0.6831 0.6635
vn -0.4342 -0.8194 0.3742
vn -0.7080 -0.7054 -0.0320
vn -0.2601 -0.8526 -0.4533
vn -0.6297 -0.6815 -0.3729
vn 0.5363 -0.8129 0.2269
vn 0.6356 -0.6502 0.4163
vn 0.0642 -0.9734 -0.2198
vn 0.4204 0.9017 0.1009
vn -0.2926 0.9472 -0.1311
vn 0.2011 0.9151 -0.3494
vn -0.0173 0.9497 0.3127
vn -0.3103 0.6815 -0.6628
vn 0.4382 0.8184 -0.3717
vn 0.7094 0.7040 0.0345
vn 0.2607 0.8529 0.4523
vn 0.6317 0.6798 0.3727
vn -0.5396 0.8079 -0.2369
vn -0.6391 0.6472 -0.4157
vn -0.0630 0.9731 0.2215
vn -0.2664 0.4483 -0.8533
vn 0.7295 0.1989 -0.6544
vn -0.6639 0.5670 0.4877
vn 0.6478 0.6796 0.3441
vn -0.8583 0.4592 0.2290
vn 0.9031 0.4294 -0.0004
vn -0.5459 0.6410 -0.5396
vn 0.5261 0.5888 0.6136
vt 0.000000 0.000000
s 0
usemtl Material.002
f 59/3/65 54/3/65 56/3/65 60/3/65
f 59/3/66 53/3/66 57/3/66 61/3/66
f 54/3/67 59/3/67 61/3/67 58/3/67
f 53/3/68 59/3/68 60/3/68 55/3/68
f 58/3/69 61/3/69 69/3/69 67/3/69
f 54/3/70 58/3/70 67/3/70 63/3/70
f 56/3/71 54/3/71 63/3/71 65/3/71
f 55/3/72 60/3/72 68/3/72 64/3/72
f 60/3/73 56/3/73 65/3/73 68/3/73
f 57/3/74 53/3/74 62/3/74 66/3/74
f 61/3/75 57/3/75 66/3/75 69/3/75
f 53/3/76 55/3/76 64/3/76 62/3/76
f 76/3/77 77/3/77 73/3/77 71/3/77
f 76/3/78 78/3/78 74/3/78 70/3/78
f 71/3/79 75/3/79 78/3/79 76/3/79
f 70/3/80 72/3/80 77/3/80 76/3/80
f 75/3/81 84/3/81 86/3/81 78/3/81
f 71/3/82 80/3/82 84/3/82 75/3/82
f 73/3/83 82/3/83 80/3/83 71/3/83
f 72/3/84 81/3/84 85/3/84 77/3/84
f 77/3/85 85/3/85 82/3/85 73/3/85
f 74/3/86 83/3/86 79/3/86 70/3/86
f 78/3/87 86/3/87 83/3/87 74/3/87
f 70/3/88 79/3/88 81/3/88 72/3/88
f 64/3/89 68/3/89 85/3/89 81/3/89
f 62/3/90 64/3/90 81/3/90 79/3/90
f 65/3/91 63/3/91 80/3/91 82/3/91
f 69/3/92 66/3/92 83/3/92 86/3/92
f 63/3/93 67/3/93 84/3/93 80/3/93
f 66/3/94 62/3/94 79/3/94 83/3/94
f 68/3/95 65/3/95 82/3/95 85/3/95
f 67/3/96 69/3/96 86/3/96 84/3/96
o Plane.003
v 0.062789 0.492103 -0.067239
v -0.028404 0.505721 -0.018076
v 0.044895 0.495225 -0.098165
v -0.024985 0.499588 -0.058881
v 0.064907 0.490227 -0.037471
v 0.001718 0.503560 0.019505
v 0.022183 0.424503 -0.038442
v 0.007107 0.497348 -0.085396
v 0.044030 0.495395 -0.006863
v 0.112849 0.508347 -0.100908
v -0.051821 0.527071 0.014203
v 0.076183 0.517742 -0.135300
v -0.072351 0.528205 -0.063606
v 0.117146 0.531463 -0.049620
v -0.011611 0.543448 0.043075
v -0.023532 0.559980 -0.132811
v 0.075591 0.537746 0.031582
v 0.059217 0.498548 -0.065844
v -0.024403 0.511650 -0.020332
v 0.045032 0.501151 -0.093571
v -0.020332 0.504882 -0.056318
v 0.059715 0.495121 -0.039781
v 0.002600 0.508576 0.014000
v 0.022411 0.431994 -0.038742
v 0.009677 0.502504 -0.080594
v 0.041340 0.500529 -0.011622
v 0.110130 0.515303 -0.100220
v -0.048409 0.533016 0.011159
v 0.076497 0.524200 -0.131500
v -0.068489 0.534323 -0.061628
v 0.112903 0.537295 -0.051678
v -0.010671 0.548775 0.037879
v -0.020785 0.565130 -0.128101
v 0.072673 0.542941 0.027027
vn -0.7567 -0.5649 -0.3289
vn 0.8034 -0.5264 0.2783
vn -0.2055 -0.6126 0.7632
vn 0.1733 -0.6673 -0.7243
vn 0.1593 -0.6167 0.7709
vn -0.3792 -0.7374 0.5590
vn -0.5432 -0.8319 0.1134
vn -0.2924 -0.6727 -0.6797
vn -0.4283 -0.6957 -0.5767
vn 0.5402 -0.8235 0.1730
vn 0.5823 -0.7090 0.3978
vn 0.1673 -0.9330 -0.3185
vn 0.7675 0.5352 0.3528
vn -0.8260 0.4833 -0.2900
vn 0.2033 0.5905 -0.7810
vn -0.1701 0.6458 0.7444
vn -0.1598 0.6177 -0.7700
vn 0.3833 0.7351 -0.5592
vn 0.5416 0.8318 -0.1215
vn 0.2980 0.6723 0.6777
vn 0.4238 0.6951 0.5807
vn -0.5440 0.8196 -0.1801
vn -0.5848 0.7090 -0.3941
vn -0.1700 0.9322 0.3195
vn 0.2049 0.5430 -0.8144
vn 0.6879 0.3382 -0.6422
vn -0.8241 0.5173 0.2306
vn 0.7012 0.6417 0.3108
vn -0.6119 0.6070 0.5071
vn 0.8595 0.4402 -0.2598
vn -0.7566 0.5992 -0.2618
vn 0.1399 0.6871 0.7130
vt 0.000000 0.000000
s 0
usemtl Material.003
f 93/4/97 88/4/97 90/4/97 94/4/97
f 93/4/98 87/4/98 91/4/98 95/4/98
f 88/4/99 93/4/99 95/4/99 92/4/99
f 87/4/100 93/4/100 94/4/100 89/4/100
f 92/4/101 95/4/101 103/4/101 101/4/101
f 88/4/102 92/4/102 101/4/102 97/4/102
f 90/4/103 88/4/103 97/4/103 99/4/103
f 89/4/104 94/4/104 102/4/104 98/4/104
f 94/4/105 90/4/105 99/4/105 102/4/105
f 91/4/106 87/4/106 96/4/106 100/4/106
f 95/4/107 91/4/107 100/4/107 103/4/107
f 87/4/108 89/4/108 98/4/108 96/4/108
f 110/4/109 111/4/109 107/4/109 105/4/109
f 110/4/110 112/4/110 108/4/110 104/4/110
f 105/4/111 109/4/111 112/4/111 110/4/111
f 104/4/112 106/4/112 111/4/112 110/4/112
f 109/4/113 118/4/113 120/4/113 112/4/113
f 105/4/114 114/4/114 118/4/114 109/4/114
f 107/4/115 116/4/115 114/4/115 105/4/115
f 106/4/116 115/4/116 119/4/116 111/4/116
f 111/4/117 119/4/117 116/4/117 107/4/117
f 108/4/118 117/4/118 113/4/118 104/4/118
f 112/4/119 120/4/119 117/4/119 108/4/119
f 104/4/120 113/4/120 115/4/120 106/4/120
f 98/4/121 102/4/121 119/4/121 115/4/121
f 96/4/122 98/4/122 115/4/122 113/4/122
f 99/4/123 97/4/123 114/4/123 116/4/123
f 103/4/124 100/4/124 117/4/124 120/4/124
f 97/4/125 101/4/125 118/4/125 114/4/125
f 100/4/126 96/4/126 113/4/126 117/4/126
f 102/4/127 99/4/127 116/4/127 119/4/127
f 101/4/128 103/4/128 120/4/128 118/4/128
