# Blender 4.4.0
# www.blender.org
mtllib brick_wall.mtl
o Cube
v -8.758558 -1.000000 0.282944
v -8.758558 7.865867 0.282944
v -8.758558 -1.000000 -1.000000
v -8.758558 7.865867 -1.000000
v 10.533504 -1.000000 0.282944
v 10.533504 7.865867 0.282944
v 10.533504 -1.000000 -1.000000
v 10.533504 7.865867 -1.000000
vn -1.0000 -0.0000 -0.0000
vn -0.0000 -0.0000 -1.0000
vn 1.0000 -0.0000 -0.0000
vn -0.0000 -0.0000 1.0000
vn -0.0000 -1.0000 -0.0000
vn -0.0000 1.0000 -0.0000
vt 0.759008 1.307517
vt 0.992194 1.313944
vt 0.992058 1.545461
vt 0.758873 1.539034
vt -0.022023 0.254500
vt -0.021555 -0.545457
vt 0.993266 -0.517486
vt 0.992798 0.282470
vt 0.525823 1.301090
vt 0.525687 1.532607
vt -0.022491 1.054456
vt -0.022023 0.254500
vt 0.992798 0.282470
vt 0.992330 1.082426
vt 0.992262 1.198185
vt -0.022559 1.170215
vt -0.022491 1.054456
vt 0.992330 1.082427
vt -0.022627 1.285974
vt -0.022559 1.170215
s 0
usemtl Material.001
f 1/1/1 2/2/1 4/3/1 3/4/1
f 3/5/2 4/6/2 8/7/2 7/8/2
f 7/9/3 8/1/3 6/4/3 5/10/3
f 5/11/4 6/12/4 2/13/4 1/14/4
f 3/15/5 7/16/5 5/17/5 1/18/5
f 8/2/6 4/19/6 2/20/6 6/15/6
